<svg xmlns="http://www.w3.org/2000/svg" viewBox="0 0 1157.62 257.5"><g id="图层_2" data-name="图层 2"><g id="Content"><path d="M0,54H36.69V75.68l2.55-3.63Q54.83,50.14,80.36,50.14q27.83,0,44.69,20.56t16.86,54.16q0,35.61-16.86,57.39T80.36,204q-25.39,0-41-20.43l-.81-1.08v75H0ZM69.34,172.3q15.47,0,24.19-11.62t8.74-32.32q0-21.11-8.67-33T69.48,83.47Q54,83.47,45.36,95.7t-8.67,34q0,20,8.67,31.31T69.34,172.3Z"/><path d="M180.69,183.45Q160.45,162.9,160.46,128q0-35.74,20.23-56.78t54.49-21q34.53,0,54.7,21T310,128q0,35-20.15,55.5T235.18,204Q200.91,204,180.69,183.45Zm80.7-23q9-11.28,9-32.92,0-22.17-9-33.67T235.18,82.39Q218,82.39,209,93.88t-8.94,33.67q0,21.63,8.94,32.92t26.14,11.29Q252.39,171.76,261.39,160.47Z"/><path d="M336.78,54h36.69v26.2A74.16,74.16,0,0,1,378,71.91q13.56-21.76,35.07-21.77l8.74.14V89.65a111,111,0,0,0-11.56-.54q-17.61,0-26.27,8.74t-8.67,26.47v75.93H336.78Z"/><path d="M511.35,201.06q-9.68.81-23.79.81-20.43,0-29.36-7.33t-8.94-24V81.05H429V54h20.29V14.66h38.57V54h23.52v27H487.83V164.1q0,5.11,3,6.72t12.57,1.62h7.93Z"/><path d="M580.56,81.05v119.2H542V81.05H520.62V54H542V41.81q0-21.11,11.22-31.45T587.28,0a124.91,124.91,0,0,1,18.14,1V31.73H593.19q-7.66,0-10.15,3.09t-2.48,12.63V54h24.86v27Z"/><path d="M639.22,183.45Q619,162.9,619,128q0-35.74,20.23-56.78t54.49-21q34.54,0,54.7,21T768.57,128q0,35-20.16,55.5T693.71,204Q659.45,204,639.22,183.45Zm80.7-23q9-11.28,9-32.92,0-22.17-9-33.67T693.71,82.39q-17.21,0-26.14,11.49t-8.93,33.67q0,21.63,8.93,32.92t26.14,11.29Q710.92,171.76,719.92,160.47Z"/><path d="M796.66,2.7h38.57V200.25H796.66Z"/><path d="M873.12,1.22h39.24V37H873.12Zm.4,52.82H912.1V200.25H873.52Z"/><path d="M960.27,183.45Q940.05,162.9,940.05,128q0-35.74,20.22-56.78t54.5-21q34.53,0,54.69,21T1089.62,128q0,35-20.16,55.5T1014.77,204Q980.49,204,960.27,183.45Zm80.7-23q9-11.28,9-32.92,0-22.17-9-33.67t-26.2-11.49q-17.21,0-26.14,11.49t-8.94,33.67q0,21.63,8.94,32.92t26.14,11.29Q1032,171.76,1041,160.47Z"/><path d="M1116.36,160.21h41.26v40h-41.26Z"/></g></g></svg>